<svg width="946" height="76" viewBox="0 0 946 76" fill="none" xmlns="http://www.w3.org/2000/svg">
<mask id="path-1-outside-1_288_17" maskUnits="userSpaceOnUse" x="-0.600098" y="-0.800049" width="946" height="77" fill="black">
<rect fill="white" x="-0.600098" y="-0.800049" width="946" height="77"/>
<path d="M0.999902 0.999947H31.7199V11.8479H13.0959V44.968H31.7199V56.2H0.999902V0.999947ZM67.1439 7.62395L56.2959 0.999947H36.4239V11.8479H55.0479V44.968H36.4239V56.2H56.2959L67.1439 49.672V7.62395ZM134.595 31.528V20.5839L123.267 13.8639H107.907V22.888H122.403V30.7599H107.907V38.152H123.267L134.595 31.528ZM134.595 42.8559H122.019V46.024H107.907V56.2H123.267L134.595 49.576V42.8559ZM76.6112 49.576V20.5839L87.9392 13.8639H103.203V22.888H88.7072V30.7599H103.203V38.152H88.7072V46.024H103.203V56.2H87.9392L76.6112 49.576ZM151.844 0.999947H164.132V56.296H151.844V0.999947ZM193.52 13.9599V56.296H181.424V13.9599H193.52ZM193.328 10.0239H181.424V1.09595H193.328V10.0239ZM214.268 14.248L230.108 38.344V56.2H226.364L202.172 17.7039L214.268 14.248ZM250.076 14.248L234.908 38.344V56.2H238.364L261.692 17.7039L250.076 14.248ZM328.283 31.528V20.5839L316.955 13.8639H301.595V22.888H316.091V30.7599H301.595V38.152H316.955L328.283 31.528ZM328.283 42.8559H315.707V46.024H301.595V56.2H316.955L328.283 49.576V42.8559ZM270.299 49.576V20.5839L281.627 13.8639H296.891V22.888H282.395V30.7599H296.891V38.152H282.395V46.024H296.891V56.2H281.627L270.299 49.576ZM345.531 14.248H357.531V18.3759L371.931 14.248V23.176H357.531V56.2H345.531V14.248ZM388.731 19.5279L376.251 14.248V27.3039H388.731V19.5279ZM398.29 14.1519H410.386V42.952H424.786V50.632H409.33L398.29 44.008V14.1519ZM410.386 60.52V64.936H424.786V74.92H409.33L398.29 68.296V60.52H410.386ZM455.698 14.1519V68.296L443.602 74.92H429.202V64.936H443.602V50.632H429.202V42.952H443.602V14.1519H455.698ZM562.174 11.8479H534.526V56.2H521.278V11.8479H496.03V0.999947H562.174V11.8479ZM566.406 14.248H578.406V18.3759L592.806 14.248V23.176H578.406V56.2H566.406V14.248ZM609.606 19.5279L597.126 14.248V27.3039H609.606V19.5279ZM618.205 37.48V49.672L629.149 56.296H644.893V46.12H630.397V38.248H644.893V30.856H629.149L618.205 37.48ZM618.205 27.3039H630.397V22.9839H644.893V13.9599H629.149L618.205 20.68V27.3039ZM675.805 20.68V56.296H649.501V46.12H663.613V38.248H649.117V30.856H663.613V22.9839H649.117V13.9599H664.861L675.805 20.68ZM692.08 20.488L703.024 13.8639H718.768V22.888H704.272V46.024H718.384V56.2H703.024L692.08 49.576V20.488ZM749.68 27.2079V20.488L738.736 13.8639H723.088V22.888H737.584V27.2079H749.68ZM749.68 42.8559V49.576L738.736 56.2H723.088V46.024H737.584V42.8559H749.68ZM759.062 0.999947H771.158V31.0479H776.534V38.056H771.158V56.296H759.062V0.999947ZM792.278 34.12L814.262 19.624L806.294 13.9599L781.334 31.0479V38.056L805.526 56.296L816.374 49.672L792.278 34.12ZM883.751 31.528V20.5839L872.423 13.8639H857.063V22.888H871.559V30.7599H857.063V38.152H872.423L883.751 31.528ZM883.751 42.8559H871.175V46.024H857.063V56.2H872.423L883.751 49.576V42.8559ZM825.767 49.576V20.5839L837.095 13.8639H852.359V22.888H837.863V30.7599H852.359V38.152H837.863V46.024H852.359V56.2H837.095L825.767 49.576ZM901 14.248H913V18.3759L927.4 14.248V23.176H913V56.2H901V14.248ZM944.2 19.5279L931.72 14.248V27.3039H944.2V19.5279Z"/>
</mask>
<path d="M0.999902 0.999947H31.7199V11.8479H13.0959V44.968H31.7199V56.2H0.999902V0.999947ZM67.1439 7.62395L56.2959 0.999947H36.4239V11.8479H55.0479V44.968H36.4239V56.2H56.2959L67.1439 49.672V7.62395ZM134.595 31.528V20.5839L123.267 13.8639H107.907V22.888H122.403V30.7599H107.907V38.152H123.267L134.595 31.528ZM134.595 42.8559H122.019V46.024H107.907V56.2H123.267L134.595 49.576V42.8559ZM76.6112 49.576V20.5839L87.9392 13.8639H103.203V22.888H88.7072V30.7599H103.203V38.152H88.7072V46.024H103.203V56.2H87.9392L76.6112 49.576ZM151.844 0.999947H164.132V56.296H151.844V0.999947ZM193.52 13.9599V56.296H181.424V13.9599H193.52ZM193.328 10.0239H181.424V1.09595H193.328V10.0239ZM214.268 14.248L230.108 38.344V56.2H226.364L202.172 17.7039L214.268 14.248ZM250.076 14.248L234.908 38.344V56.2H238.364L261.692 17.7039L250.076 14.248ZM328.283 31.528V20.5839L316.955 13.8639H301.595V22.888H316.091V30.7599H301.595V38.152H316.955L328.283 31.528ZM328.283 42.8559H315.707V46.024H301.595V56.2H316.955L328.283 49.576V42.8559ZM270.299 49.576V20.5839L281.627 13.8639H296.891V22.888H282.395V30.7599H296.891V38.152H282.395V46.024H296.891V56.2H281.627L270.299 49.576ZM345.531 14.248H357.531V18.3759L371.931 14.248V23.176H357.531V56.2H345.531V14.248ZM388.731 19.5279L376.251 14.248V27.3039H388.731V19.5279ZM398.29 14.1519H410.386V42.952H424.786V50.632H409.33L398.29 44.008V14.1519ZM410.386 60.52V64.936H424.786V74.92H409.33L398.29 68.296V60.52H410.386ZM455.698 14.1519V68.296L443.602 74.92H429.202V64.936H443.602V50.632H429.202V42.952H443.602V14.1519H455.698ZM562.174 11.8479H534.526V56.2H521.278V11.8479H496.03V0.999947H562.174V11.8479ZM566.406 14.248H578.406V18.3759L592.806 14.248V23.176H578.406V56.2H566.406V14.248ZM609.606 19.5279L597.126 14.248V27.3039H609.606V19.5279ZM618.205 37.48V49.672L629.149 56.296H644.893V46.12H630.397V38.248H644.893V30.856H629.149L618.205 37.48ZM618.205 27.3039H630.397V22.9839H644.893V13.9599H629.149L618.205 20.68V27.3039ZM675.805 20.68V56.296H649.501V46.12H663.613V38.248H649.117V30.856H663.613V22.9839H649.117V13.9599H664.861L675.805 20.68ZM692.08 20.488L703.024 13.8639H718.768V22.888H704.272V46.024H718.384V56.2H703.024L692.08 49.576V20.488ZM749.68 27.2079V20.488L738.736 13.8639H723.088V22.888H737.584V27.2079H749.68ZM749.68 42.8559V49.576L738.736 56.2H723.088V46.024H737.584V42.8559H749.68ZM759.062 0.999947H771.158V31.0479H776.534V38.056H771.158V56.296H759.062V0.999947ZM792.278 34.12L814.262 19.624L806.294 13.9599L781.334 31.0479V38.056L805.526 56.296L816.374 49.672L792.278 34.12ZM883.751 31.528V20.5839L872.423 13.8639H857.063V22.888H871.559V30.7599H857.063V38.152H872.423L883.751 31.528ZM883.751 42.8559H871.175V46.024H857.063V56.2H872.423L883.751 49.576V42.8559ZM825.767 49.576V20.5839L837.095 13.8639H852.359V22.888H837.863V30.7599H852.359V38.152H837.863V46.024H852.359V56.2H837.095L825.767 49.576ZM901 14.248H913V18.3759L927.4 14.248V23.176H913V56.2H901V14.248ZM944.2 19.5279L931.72 14.248V27.3039H944.2V19.5279Z" fill="#FF8616"/>
<path d="M0.999903 0.999947V-5.34058e-05H-9.72748e-05V0.999947H0.999903ZM31.7199 0.999947H32.7199V-5.34058e-05H31.7199V0.999947ZM31.7199 11.8479V12.8479H32.7199V11.8479H31.7199ZM13.0959 11.8479V10.8479H12.0959V11.8479H13.0959ZM13.0959 44.9679H12.0959V45.9679H13.0959V44.9679ZM31.7199 44.9679H32.7199V43.9679H31.7199V44.9679ZM31.7199 56.2V57.2H32.7199V56.2H31.7199ZM0.999903 56.2H-9.72748e-05V57.2H0.999903V56.2ZM67.1439 7.62395H68.1439V7.06288L67.665 6.77048L67.1439 7.62395ZM56.2959 0.999947L56.8171 0.146479L56.5771 -5.34058e-05H56.2959V0.999947ZM36.4239 0.999947V-5.34058e-05H35.4239V0.999947H36.4239ZM36.4239 11.8479H35.4239V12.8479H36.4239V11.8479ZM55.0479 11.8479H56.0479V10.8479H55.0479V11.8479ZM55.0479 44.9679V45.9679H56.0479V44.9679H55.0479ZM36.4239 44.9679V43.9679H35.4239V44.9679H36.4239ZM36.4239 56.2H35.4239V57.2H36.4239V56.2ZM56.2959 56.2V57.2H56.5736L56.8115 57.0568L56.2959 56.2ZM67.1439 49.672L67.6595 50.5288L68.1439 50.2373V49.672H67.1439ZM0.999903 0.999947V1.99995H31.7199V0.999947V-5.34058e-05H0.999903V0.999947ZM31.7199 0.999947H30.7199V11.8479H31.7199H32.7199V0.999947H31.7199ZM31.7199 11.8479V10.8479H13.0959V11.8479V12.8479H31.7199V11.8479ZM13.0959 11.8479H12.0959V44.9679H13.0959H14.0959V11.8479H13.0959ZM13.0959 44.9679V45.9679H31.7199V44.9679V43.9679H13.0959V44.9679ZM31.7199 44.9679H30.7199V56.2H31.7199H32.7199V44.9679H31.7199ZM31.7199 56.2V55.2H0.999903V56.2V57.2H31.7199V56.2ZM0.999903 56.2H1.9999V0.999947H0.999903H-9.72748e-05V56.2H0.999903ZM67.1439 7.62395L67.665 6.77048L56.8171 0.146479L56.2959 0.999947L55.7748 1.85341L66.6228 8.47742L67.1439 7.62395ZM56.2959 0.999947V-5.34058e-05H36.4239V0.999947V1.99995H56.2959V0.999947ZM36.4239 0.999947H35.4239V11.8479H36.4239H37.4239V0.999947H36.4239ZM36.4239 11.8479V12.8479H55.0479V11.8479V10.8479H36.4239V11.8479ZM55.0479 11.8479H54.0479V44.9679H55.0479H56.0479V11.8479H55.0479ZM55.0479 44.9679V43.9679H36.4239V44.9679V45.9679H55.0479V44.9679ZM36.4239 44.9679H35.4239V56.2H36.4239H37.4239V44.9679H36.4239ZM36.4239 56.2V57.2H56.2959V56.2V55.2H36.4239V56.2ZM56.2959 56.2L56.8115 57.0568L67.6595 50.5288L67.1439 49.672L66.6283 48.8151L55.7803 55.3431L56.2959 56.2ZM67.1439 49.672H68.1439V7.62395H67.1439H66.1439V49.672H67.1439ZM134.595 31.528L135.1 32.3912L135.595 32.1016V31.528H134.595ZM134.595 20.584H135.595V20.0145L135.105 19.7239L134.595 20.584ZM123.267 13.8639L123.777 13.0039L123.541 12.8639H123.267V13.8639ZM107.907 13.8639V12.8639H106.907V13.8639H107.907ZM107.907 22.888H106.907V23.888H107.907V22.888ZM122.403 22.888H123.403V21.888H122.403V22.888ZM122.403 30.7599V31.7599H123.403V30.7599H122.403ZM107.907 30.7599V29.7599H106.907V30.7599H107.907ZM107.907 38.152H106.907V39.152H107.907V38.152ZM123.267 38.152V39.152H123.538L123.772 39.0152L123.267 38.152ZM134.595 42.8559H135.595V41.8559H134.595V42.8559ZM122.019 42.8559V41.8559H121.019V42.8559H122.019ZM122.019 46.0239V47.0239H123.019V46.0239H122.019ZM107.907 46.0239V45.0239H106.907V46.0239H107.907ZM107.907 56.2H106.907V57.2H107.907V56.2ZM123.267 56.2V57.2H123.538L123.772 57.0632L123.267 56.2ZM134.595 49.576L135.1 50.4392L135.595 50.1496V49.576H134.595ZM76.6112 49.576H75.6112V50.1496L76.1064 50.4392L76.6112 49.576ZM76.6112 20.584L76.101 19.7239L75.6112 20.0145V20.584H76.6112ZM87.9392 13.8639V12.8639H87.6649L87.429 13.0039L87.9392 13.8639ZM103.203 13.8639H104.203V12.8639H103.203V13.8639ZM103.203 22.888V23.888H104.203V22.888H103.203ZM88.7072 22.888V21.888H87.7072V22.888H88.7072ZM88.7072 30.7599H87.7072V31.7599H88.7072V30.7599ZM103.203 30.7599H104.203V29.7599H103.203V30.7599ZM103.203 38.152V39.152H104.203V38.152H103.203ZM88.7072 38.152V37.152H87.7072V38.152H88.7072ZM88.7072 46.0239H87.7072V47.0239H88.7072V46.0239ZM103.203 46.0239H104.203V45.0239H103.203V46.0239ZM103.203 56.2V57.2H104.203V56.2H103.203ZM87.9392 56.2L87.4344 57.0632L87.6682 57.2H87.9392V56.2ZM134.595 31.528H135.595V20.584H134.595H133.595V31.528H134.595ZM134.595 20.584L135.105 19.7239L123.777 13.0039L123.267 13.8639L122.757 14.724L134.085 21.444L134.595 20.584ZM123.267 13.8639V12.8639H107.907V13.8639V14.8639H123.267V13.8639ZM107.907 13.8639H106.907V22.888H107.907H108.907V13.8639H107.907ZM107.907 22.888V23.888H122.403V22.888V21.888H107.907V22.888ZM122.403 22.888H121.403V30.7599H122.403H123.403V22.888H122.403ZM122.403 30.7599V29.7599H107.907V30.7599V31.7599H122.403V30.7599ZM107.907 30.7599H106.907V38.152H107.907H108.907V30.7599H107.907ZM107.907 38.152V39.152H123.267V38.152V37.152H107.907V38.152ZM123.267 38.152L123.772 39.0152L135.1 32.3912L134.595 31.528L134.09 30.6647L122.762 37.2887L123.267 38.152ZM134.595 42.8559V41.8559H122.019V42.8559V43.8559H134.595V42.8559ZM122.019 42.8559H121.019V46.0239H122.019H123.019V42.8559H122.019ZM122.019 46.0239V45.0239H107.907V46.0239V47.0239H122.019V46.0239ZM107.907 46.0239H106.907V56.2H107.907H108.907V46.0239H107.907ZM107.907 56.2V57.2H123.267V56.2V55.2H107.907V56.2ZM123.267 56.2L123.772 57.0632L135.1 50.4392L134.595 49.576L134.09 48.7127L122.762 55.3367L123.267 56.2ZM134.595 49.576H135.595V42.8559H134.595H133.595V49.576H134.595ZM76.6112 49.576H77.6112V20.584H76.6112H75.6112V49.576H76.6112ZM76.6112 20.584L77.1214 21.444L88.4494 14.724L87.9392 13.8639L87.429 13.0039L76.101 19.7239L76.6112 20.584ZM87.9392 13.8639V14.8639H103.203V13.8639V12.8639H87.9392V13.8639ZM103.203 13.8639H102.203V22.888H103.203H104.203V13.8639H103.203ZM103.203 22.888V21.888H88.7072V22.888V23.888H103.203V22.888ZM88.7072 22.888H87.7072V30.7599H88.7072H89.7072V22.888H88.7072ZM88.7072 30.7599V31.7599H103.203V30.7599V29.7599H88.7072V30.7599ZM103.203 30.7599H102.203V38.152H103.203H104.203V30.7599H103.203ZM103.203 38.152V37.152H88.7072V38.152V39.152H103.203V38.152ZM88.7072 38.152H87.7072V46.0239H88.7072H89.7072V38.152H88.7072ZM88.7072 46.0239V47.0239H103.203V46.0239V45.0239H88.7072V46.0239ZM103.203 46.0239H102.203V56.2H103.203H104.203V46.0239H103.203ZM103.203 56.2V55.2H87.9392V56.2V57.2H103.203V56.2ZM87.9392 56.2L88.4439 55.3367L77.1159 48.7127L76.6112 49.576L76.1064 50.4392L87.4344 57.0632L87.9392 56.2ZM151.844 0.999947V-5.34058e-05H150.844V0.999947H151.844ZM164.132 0.999947H165.132V-5.34058e-05H164.132V0.999947ZM164.132 56.296V57.296H165.132V56.296H164.132ZM151.844 56.296H150.844V57.296H151.844V56.296ZM151.844 0.999947V1.99995H164.132V0.999947V-5.34058e-05H151.844V0.999947ZM164.132 0.999947H163.132V56.296H164.132H165.132V0.999947H164.132ZM164.132 56.296V55.296H151.844V56.296V57.296H164.132V56.296ZM151.844 56.296H152.844V0.999947H151.844H150.844V56.296H151.844ZM193.52 13.9599H194.52V12.9599H193.52V13.9599ZM193.52 56.296V57.296H194.52V56.296H193.52ZM181.424 56.296H180.424V57.296H181.424V56.296ZM181.424 13.9599V12.9599H180.424V13.9599H181.424ZM193.328 10.0239V11.0239H194.328V10.0239H193.328ZM181.424 10.0239H180.424V11.0239H181.424V10.0239ZM181.424 1.09595V0.0959511H180.424V1.09595H181.424ZM193.328 1.09595H194.328V0.0959511H193.328V1.09595ZM193.52 13.9599H192.52V56.296H193.52H194.52V13.9599H193.52ZM193.52 56.296V55.296H181.424V56.296V57.296H193.52V56.296ZM181.424 56.296H182.424V13.9599H181.424H180.424V56.296H181.424ZM181.424 13.9599V14.9599H193.52V13.9599V12.9599H181.424V13.9599ZM193.328 10.0239V9.02395H181.424V10.0239V11.0239H193.328V10.0239ZM181.424 10.0239H182.424V1.09595H181.424H180.424V10.0239H181.424ZM181.424 1.09595V2.09595H193.328V1.09595V0.0959511H181.424V1.09595ZM193.328 1.09595H192.328V10.0239H193.328H194.328V1.09595H193.328ZM214.268 14.248L215.104 13.6986L214.7 13.0845L213.994 13.2864L214.268 14.248ZM230.108 38.344H231.108V38.0447L230.944 37.7946L230.108 38.344ZM230.108 56.2V57.2H231.108V56.2H230.108ZM226.364 56.2L225.518 56.732L225.812 57.2H226.364V56.2ZM202.172 17.7039L201.898 16.7424L200.617 17.1083L201.326 18.236L202.172 17.7039ZM250.076 14.248L250.362 13.2895L249.634 13.0731L249.23 13.7152L250.076 14.248ZM234.908 38.344L234.062 37.8112L233.908 38.0554V38.344H234.908ZM234.908 56.2H233.908V57.2H234.908V56.2ZM238.364 56.2V57.2H238.928L239.22 56.7182L238.364 56.2ZM261.692 17.7039L262.548 18.2222L263.219 17.1147L261.978 16.7455L261.692 17.7039ZM214.268 14.248L213.433 14.7973L229.273 38.8933L230.108 38.344L230.944 37.7946L215.104 13.6986L214.268 14.248ZM230.108 38.344H229.108V56.2H230.108H231.108V38.344H230.108ZM230.108 56.2V55.2H226.364V56.2V57.2H230.108V56.2ZM226.364 56.2L227.211 55.6679L203.019 17.1719L202.172 17.7039L201.326 18.236L225.518 56.732L226.364 56.2ZM202.172 17.7039L202.447 18.6655L214.543 15.2095L214.268 14.248L213.994 13.2864L201.898 16.7424L202.172 17.7039ZM250.076 14.248L249.23 13.7152L234.062 37.8112L234.908 38.344L235.755 38.8767L250.923 14.7807L250.076 14.248ZM234.908 38.344H233.908V56.2H234.908H235.908V38.344H234.908ZM234.908 56.2V57.2H238.364V56.2V55.2H234.908V56.2ZM238.364 56.2L239.22 56.7182L262.548 18.2222L261.692 17.7039L260.837 17.1857L237.509 55.6817L238.364 56.2ZM261.692 17.7039L261.978 16.7455L250.362 13.2895L250.076 14.248L249.791 15.2064L261.407 18.6624L261.692 17.7039ZM328.283 31.528L328.787 32.3912L329.283 32.1016V31.528H328.283ZM328.283 20.584H329.283V20.0145L328.793 19.7239L328.283 20.584ZM316.955 13.8639L317.465 13.0039L317.229 12.8639H316.955V13.8639ZM301.595 13.8639V12.8639H300.595V13.8639H301.595ZM301.595 22.888H300.595V23.888H301.595V22.888ZM316.091 22.888H317.091V21.888H316.091V22.888ZM316.091 30.7599V31.7599H317.091V30.7599H316.091ZM301.595 30.7599V29.7599H300.595V30.7599H301.595ZM301.595 38.152H300.595V39.152H301.595V38.152ZM316.955 38.152V39.152H317.226L317.459 39.0152L316.955 38.152ZM328.283 42.8559H329.283V41.8559H328.283V42.8559ZM315.707 42.8559V41.8559H314.707V42.8559H315.707ZM315.707 46.0239V47.0239H316.707V46.0239H315.707ZM301.595 46.0239V45.0239H300.595V46.0239H301.595ZM301.595 56.2H300.595V57.2H301.595V56.2ZM316.955 56.2V57.2H317.226L317.459 57.0632L316.955 56.2ZM328.283 49.576L328.787 50.4392L329.283 50.1496V49.576H328.283ZM270.299 49.576H269.299V50.1496L269.794 50.4392L270.299 49.576ZM270.299 20.584L269.788 19.7239L269.299 20.0145V20.584H270.299ZM281.627 13.8639V12.8639H281.352L281.116 13.0039L281.627 13.8639ZM296.891 13.8639H297.891V12.8639H296.891V13.8639ZM296.891 22.888V23.888H297.891V22.888H296.891ZM282.395 22.888V21.888H281.395V22.888H282.395ZM282.395 30.7599H281.395V31.7599H282.395V30.7599ZM296.891 30.7599H297.891V29.7599H296.891V30.7599ZM296.891 38.152V39.152H297.891V38.152H296.891ZM282.395 38.152V37.152H281.395V38.152H282.395ZM282.395 46.0239H281.395V47.0239H282.395V46.0239ZM296.891 46.0239H297.891V45.0239H296.891V46.0239ZM296.891 56.2V57.2H297.891V56.2H296.891ZM281.627 56.2L281.122 57.0632L281.356 57.2H281.627V56.2ZM328.283 31.528H329.283V20.584H328.283H327.283V31.528H328.283ZM328.283 20.584L328.793 19.7239L317.465 13.0039L316.955 13.8639L316.444 14.724L327.772 21.444L328.283 20.584ZM316.955 13.8639V12.8639H301.595V13.8639V14.8639H316.955V13.8639ZM301.595 13.8639H300.595V22.888H301.595H302.595V13.8639H301.595ZM301.595 22.888V23.888H316.091V22.888V21.888H301.595V22.888ZM316.091 22.888H315.091V30.7599H316.091H317.091V22.888H316.091ZM316.091 30.7599V29.7599H301.595V30.7599V31.7599H316.091V30.7599ZM301.595 30.7599H300.595V38.152H301.595H302.595V30.7599H301.595ZM301.595 38.152V39.152H316.955V38.152V37.152H301.595V38.152ZM316.955 38.152L317.459 39.0152L328.787 32.3912L328.283 31.528L327.778 30.6647L316.45 37.2887L316.955 38.152ZM328.283 42.8559V41.8559H315.707V42.8559V43.8559H328.283V42.8559ZM315.707 42.8559H314.707V46.0239H315.707H316.707V42.8559H315.707ZM315.707 46.0239V45.0239H301.595V46.0239V47.0239H315.707V46.0239ZM301.595 46.0239H300.595V56.2H301.595H302.595V46.0239H301.595ZM301.595 56.2V57.2H316.955V56.2V55.2H301.595V56.2ZM316.955 56.2L317.459 57.0632L328.787 50.4392L328.283 49.576L327.778 48.7127L316.45 55.3367L316.955 56.2ZM328.283 49.576H329.283V42.8559H328.283H327.283V49.576H328.283ZM270.299 49.576H271.299V20.584H270.299H269.299V49.576H270.299ZM270.299 20.584L270.809 21.444L282.137 14.724L281.627 13.8639L281.116 13.0039L269.788 19.7239L270.299 20.584ZM281.627 13.8639V14.8639H296.891V13.8639V12.8639H281.627V13.8639ZM296.891 13.8639H295.891V22.888H296.891H297.891V13.8639H296.891ZM296.891 22.888V21.888H282.395V22.888V23.888H296.891V22.888ZM282.395 22.888H281.395V30.7599H282.395H283.395V22.888H282.395ZM282.395 30.7599V31.7599H296.891V30.7599V29.7599H282.395V30.7599ZM296.891 30.7599H295.891V38.152H296.891H297.891V30.7599H296.891ZM296.891 38.152V37.152H282.395V38.152V39.152H296.891V38.152ZM282.395 38.152H281.395V46.0239H282.395H283.395V38.152H282.395ZM282.395 46.0239V47.0239H296.891V46.0239V45.0239H282.395V46.0239ZM296.891 46.0239H295.891V56.2H296.891H297.891V46.0239H296.891ZM296.891 56.2V55.2H281.627V56.2V57.2H296.891V56.2ZM281.627 56.2L282.131 55.3367L270.803 48.7127L270.299 49.576L269.794 50.4392L281.122 57.0632L281.627 56.2ZM345.531 14.248V13.248H344.531V14.248H345.531ZM357.531 14.248H358.531V13.248H357.531V14.248ZM357.531 18.3759H356.531V19.7029L357.807 19.3372L357.531 18.3759ZM371.931 14.248H372.931V12.921L371.656 13.2867L371.931 14.248ZM371.931 23.1759V24.1759H372.931V23.1759H371.931ZM357.531 23.1759V22.1759H356.531V23.1759H357.531ZM357.531 56.2V57.2H358.531V56.2H357.531ZM345.531 56.2H344.531V57.2H345.531V56.2ZM388.731 19.5279H389.731V18.8652L389.121 18.607L388.731 19.5279ZM376.251 14.248L376.641 13.327L375.251 12.7391V14.248H376.251ZM376.251 27.3039H375.251V28.3039H376.251V27.3039ZM388.731 27.3039V28.3039H389.731V27.3039H388.731ZM345.531 14.248V15.248H357.531V14.248V13.248H345.531V14.248ZM357.531 14.248H356.531V18.3759H357.531H358.531V14.248H357.531ZM357.531 18.3759L357.807 19.3372L372.207 15.2092L371.931 14.248L371.656 13.2867L357.256 17.4147L357.531 18.3759ZM371.931 14.248H370.931V23.1759H371.931H372.931V14.248H371.931ZM371.931 23.1759V22.1759H357.531V23.1759V24.1759H371.931V23.1759ZM357.531 23.1759H356.531V56.2H357.531H358.531V23.1759H357.531ZM357.531 56.2V55.2H345.531V56.2V57.2H357.531V56.2ZM345.531 56.2H346.531V14.248H345.531H344.531V56.2H345.531ZM388.731 19.5279L389.121 18.607L376.641 13.327L376.251 14.248L375.862 15.1689L388.342 20.4489L388.731 19.5279ZM376.251 14.248H375.251V27.3039H376.251H377.251V14.248H376.251ZM376.251 27.3039V28.3039H388.731V27.3039V26.3039H376.251V27.3039ZM388.731 27.3039H389.731V19.5279H388.731H387.731V27.3039H388.731ZM398.29 14.1519V13.1519H397.29V14.1519H398.29ZM410.386 14.1519H411.386V13.1519H410.386V14.1519ZM410.386 42.952H409.386V43.952H410.386V42.952ZM424.786 42.952H425.786V41.952H424.786V42.952ZM424.786 50.632V51.632H425.786V50.632H424.786ZM409.33 50.632L408.815 51.4894L409.053 51.632H409.33V50.632ZM398.29 44.0079H397.29V44.5741L397.775 44.8654L398.29 44.0079ZM410.386 60.52H411.386V59.52H410.386V60.52ZM410.386 64.936H409.386V65.936H410.386V64.936ZM424.786 64.936H425.786V63.936H424.786V64.936ZM424.786 74.92V75.92H425.786V74.92H424.786ZM409.33 74.92L408.815 75.7774L409.053 75.92H409.33V74.92ZM398.29 68.296H397.29V68.8621L397.775 69.1534L398.29 68.296ZM398.29 60.52V59.52H397.29V60.52H398.29ZM455.698 14.1519H456.698V13.1519H455.698V14.1519ZM455.698 68.296L456.178 69.173L456.698 68.8885V68.296H455.698ZM443.602 74.92V75.92H443.858L444.082 75.7971L443.602 74.92ZM429.202 74.92H428.202V75.92H429.202V74.92ZM429.202 64.936V63.936H428.202V64.936H429.202ZM443.602 64.936V65.936H444.602V64.936H443.602ZM443.602 50.632H444.602V49.632H443.602V50.632ZM429.202 50.632H428.202V51.632H429.202V50.632ZM429.202 42.952V41.952H428.202V42.952H429.202ZM443.602 42.952V43.952H444.602V42.952H443.602ZM443.602 14.1519V13.1519H442.602V14.1519H443.602ZM398.29 14.1519V15.1519H410.386V14.1519V13.1519H398.29V14.1519ZM410.386 14.1519H409.386V42.952H410.386H411.386V14.1519H410.386ZM410.386 42.952V43.952H424.786V42.952V41.952H410.386V42.952ZM424.786 42.952H423.786V50.632H424.786H425.786V42.952H424.786ZM424.786 50.632V49.632H409.33V50.632V51.632H424.786V50.632ZM409.33 50.632L409.844 49.7745L398.804 43.1505L398.29 44.0079L397.775 44.8654L408.815 51.4894L409.33 50.632ZM398.29 44.0079H399.29V14.1519H398.29H397.29V44.0079H398.29ZM410.386 60.52H409.386V64.936H410.386H411.386V60.52H410.386ZM410.386 64.936V65.936H424.786V64.936V63.936H410.386V64.936ZM424.786 64.936H423.786V74.92H424.786H425.786V64.936H424.786ZM424.786 74.92V73.92H409.33V74.92V75.92H424.786V74.92ZM409.33 74.92L409.844 74.0625L398.804 67.4385L398.29 68.296L397.775 69.1534L408.815 75.7774L409.33 74.92ZM398.29 68.296H399.29V60.52H398.29H397.29V68.296H398.29ZM398.29 60.52V61.52H410.386V60.52V59.52H398.29V60.52ZM455.698 14.1519H454.698V68.296H455.698H456.698V14.1519H455.698ZM455.698 68.296L455.218 67.4189L443.122 74.0429L443.602 74.92L444.082 75.7971L456.178 69.173L455.698 68.296ZM443.602 74.92V73.92H429.202V74.92V75.92H443.602V74.92ZM429.202 74.92H430.202V64.936H429.202H428.202V74.92H429.202ZM429.202 64.936V65.936H443.602V64.936V63.936H429.202V64.936ZM443.602 64.936H444.602V50.632H443.602H442.602V64.936H443.602ZM443.602 50.632V49.632H429.202V50.632V51.632H443.602V50.632ZM429.202 50.632H430.202V42.952H429.202H428.202V50.632H429.202ZM429.202 42.952V43.952H443.602V42.952V41.952H429.202V42.952ZM443.602 42.952H444.602V14.1519H443.602H442.602V42.952H443.602ZM443.602 14.1519V15.1519H455.698V14.1519V13.1519H443.602V14.1519ZM562.174 11.8479V12.8479H563.174V11.8479H562.174ZM534.526 11.8479V10.8479H533.526V11.8479H534.526ZM534.526 56.2V57.2H535.526V56.2H534.526ZM521.278 56.2H520.278V57.2H521.278V56.2ZM521.278 11.8479H522.278V10.8479H521.278V11.8479ZM496.03 11.8479H495.03V12.8479H496.03V11.8479ZM496.03 0.999947V-5.34058e-05H495.03V0.999947H496.03ZM562.174 0.999947H563.174V-5.34058e-05H562.174V0.999947ZM562.174 11.8479V10.8479H534.526V11.8479V12.8479H562.174V11.8479ZM534.526 11.8479H533.526V56.2H534.526H535.526V11.8479H534.526ZM534.526 56.2V55.2H521.278V56.2V57.2H534.526V56.2ZM521.278 56.2H522.278V11.8479H521.278H520.278V56.2H521.278ZM521.278 11.8479V10.8479H496.03V11.8479V12.8479H521.278V11.8479ZM496.03 11.8479H497.03V0.999947H496.03H495.03V11.8479H496.03ZM496.03 0.999947V1.99995H562.174V0.999947V-5.34058e-05H496.03V0.999947ZM562.174 0.999947H561.174V11.8479H562.174H563.174V0.999947H562.174ZM566.406 14.248V13.248H565.406V14.248H566.406ZM578.406 14.248H579.406V13.248H578.406V14.248ZM578.406 18.3759H577.406V19.7029L578.682 19.3372L578.406 18.3759ZM592.806 14.248H593.806V12.921L592.531 13.2867L592.806 14.248ZM592.806 23.1759V24.1759H593.806V23.1759H592.806ZM578.406 23.1759V22.1759H577.406V23.1759H578.406ZM578.406 56.2V57.2H579.406V56.2H578.406ZM566.406 56.2H565.406V57.2H566.406V56.2ZM609.606 19.5279H610.606V18.8652L609.996 18.607L609.606 19.5279ZM597.126 14.248L597.516 13.327L596.126 12.7391V14.248H597.126ZM597.126 27.3039H596.126V28.3039H597.126V27.3039ZM609.606 27.3039V28.3039H610.606V27.3039H609.606ZM566.406 14.248V15.248H578.406V14.248V13.248H566.406V14.248ZM578.406 14.248H577.406V18.3759H578.406H579.406V14.248H578.406ZM578.406 18.3759L578.682 19.3372L593.082 15.2092L592.806 14.248L592.531 13.2867L578.131 17.4147L578.406 18.3759ZM592.806 14.248H591.806V23.1759H592.806H593.806V14.248H592.806ZM592.806 23.1759V22.1759H578.406V23.1759V24.1759H592.806V23.1759ZM578.406 23.1759H577.406V56.2H578.406H579.406V23.1759H578.406ZM578.406 56.2V55.2H566.406V56.2V57.2H578.406V56.2ZM566.406 56.2H567.406V14.248H566.406H565.406V56.2H566.406ZM609.606 19.5279L609.996 18.607L597.516 13.327L597.126 14.248L596.737 15.1689L609.216 20.4489L609.606 19.5279ZM597.126 14.248H596.126V27.3039H597.126H598.126V14.248H597.126ZM597.126 27.3039V28.3039H609.606V27.3039V26.3039H597.126V27.3039ZM609.606 27.3039H610.606V19.5279H609.606H608.606V27.3039H609.606ZM618.205 37.4799L617.687 36.6245L617.205 36.9163V37.4799H618.205ZM618.205 49.672H617.205V50.2356L617.687 50.5275L618.205 49.672ZM629.149 56.296L628.631 57.1515L628.87 57.296H629.149V56.296ZM644.893 56.296V57.296H645.893V56.296H644.893ZM644.893 46.1199H645.893V45.1199H644.893V46.1199ZM630.397 46.1199H629.397V47.1199H630.397V46.1199ZM630.397 38.248V37.248H629.397V38.248H630.397ZM644.893 38.248V39.248H645.893V38.248H644.893ZM644.893 30.8559H645.893V29.8559H644.893V30.8559ZM629.149 30.8559V29.8559H628.87L628.631 30.0005L629.149 30.8559ZM618.205 27.3039H617.205V28.3039H618.205V27.3039ZM630.397 27.3039V28.3039H631.397V27.3039H630.397ZM630.397 22.9839V21.9839H629.397V22.9839H630.397ZM644.893 22.9839V23.9839H645.893V22.9839H644.893ZM644.893 13.9599H645.893V12.9599H644.893V13.9599ZM629.149 13.9599V12.9599H628.866L628.626 13.1078L629.149 13.9599ZM618.205 20.68L617.682 19.8278L617.205 20.1205V20.68H618.205ZM675.805 20.68H676.805V20.1205L676.328 19.8278L675.805 20.68ZM675.805 56.296V57.296H676.805V56.296H675.805ZM649.501 56.296H648.501V57.296H649.501V56.296ZM649.501 46.1199V45.1199H648.501V46.1199H649.501ZM663.613 46.1199V47.1199H664.613V46.1199H663.613ZM663.613 38.248H664.613V37.248H663.613V38.248ZM649.117 38.248H648.117V39.248H649.117V38.248ZM649.117 30.8559V29.8559H648.117V30.8559H649.117ZM663.613 30.8559V31.8559H664.613V30.8559H663.613ZM663.613 22.9839H664.613V21.9839H663.613V22.9839ZM649.117 22.9839H648.117V23.9839H649.117V22.9839ZM649.117 13.9599V12.9599H648.117V13.9599H649.117ZM664.861 13.9599L665.384 13.1078L665.143 12.9599H664.861V13.9599ZM618.205 37.4799H617.205V49.672H618.205H619.205V37.4799H618.205ZM618.205 49.672L617.687 50.5275L628.631 57.1515L629.149 56.296L629.667 55.4405L618.723 48.8165L618.205 49.672ZM629.149 56.296V57.296H644.893V56.296V55.296H629.149V56.296ZM644.893 56.296H645.893V46.1199H644.893H643.893V56.296H644.893ZM644.893 46.1199V45.1199H630.397V46.1199V47.1199H644.893V46.1199ZM630.397 46.1199H631.397V38.248H630.397H629.397V46.1199H630.397ZM630.397 38.248V39.248H644.893V38.248V37.248H630.397V38.248ZM644.893 38.248H645.893V30.8559H644.893H643.893V38.248H644.893ZM644.893 30.8559V29.8559H629.149V30.8559V31.8559H644.893V30.8559ZM629.149 30.8559L628.631 30.0005L617.687 36.6245L618.205 37.4799L618.723 38.3354L629.667 31.7115L629.149 30.8559ZM618.205 27.3039V28.3039H630.397V27.3039V26.3039H618.205V27.3039ZM630.397 27.3039H631.397V22.9839H630.397H629.397V27.3039H630.397ZM630.397 22.9839V23.9839H644.893V22.9839V21.9839H630.397V22.9839ZM644.893 22.9839H645.893V13.9599H644.893H643.893V22.9839H644.893ZM644.893 13.9599V12.9599H629.149V13.9599V14.9599H644.893V13.9599ZM629.149 13.9599L628.626 13.1078L617.682 19.8278L618.205 20.68L618.728 21.5321L629.672 14.8121L629.149 13.9599ZM618.205 20.68H617.205V27.3039H618.205H619.205V20.68H618.205ZM675.805 20.68H674.805V56.296H675.805H676.805V20.68H675.805ZM675.805 56.296V55.296H649.501V56.296V57.296H675.805V56.296ZM649.501 56.296H650.501V46.1199H649.501H648.501V56.296H649.501ZM649.501 46.1199V47.1199H663.613V46.1199V45.1199H649.501V46.1199ZM663.613 46.1199H664.613V38.248H663.613H662.613V46.1199H663.613ZM663.613 38.248V37.248H649.117V38.248V39.248H663.613V38.248ZM649.117 38.248H650.117V30.8559H649.117H648.117V38.248H649.117ZM649.117 30.8559V31.8559H663.613V30.8559V29.8559H649.117V30.8559ZM663.613 30.8559H664.613V22.9839H663.613H662.613V30.8559H663.613ZM663.613 22.9839V21.9839H649.117V22.9839V23.9839H663.613V22.9839ZM649.117 22.9839H650.117V13.9599H649.117H648.117V22.9839H649.117ZM649.117 13.9599V14.9599H664.861V13.9599V12.9599H649.117V13.9599ZM664.861 13.9599L664.338 14.8121L675.282 21.5321L675.805 20.68L676.328 19.8278L665.384 13.1078L664.861 13.9599ZM692.08 20.4879L691.562 19.6325L691.08 19.9243V20.4879H692.08ZM703.024 13.8639V12.8639H702.745L702.506 13.0084L703.024 13.8639ZM718.768 13.8639H719.768V12.8639H718.768V13.8639ZM718.768 22.888V23.888H719.768V22.888H718.768ZM704.272 22.888V21.888H703.272V22.888H704.272ZM704.272 46.0239H703.272V47.0239H704.272V46.0239ZM718.384 46.0239H719.384V45.0239H718.384V46.0239ZM718.384 56.2V57.2H719.384V56.2H718.384ZM703.024 56.2L702.506 57.0555L702.745 57.2H703.024V56.2ZM692.08 49.576H691.08V50.1396L691.562 50.4314L692.08 49.576ZM749.68 27.208V28.208H750.68V27.208H749.68ZM749.68 20.4879H750.68V19.9243L750.198 19.6325L749.68 20.4879ZM738.736 13.8639L739.254 13.0084L739.015 12.8639H738.736V13.8639ZM723.088 13.8639V12.8639H722.088V13.8639H723.088ZM723.088 22.888H722.088V23.888H723.088V22.888ZM737.584 22.888H738.584V21.888H737.584V22.888ZM737.584 27.208H736.584V28.208H737.584V27.208ZM749.68 42.8559H750.68V41.8559H749.68V42.8559ZM749.68 49.576L750.198 50.4314L750.68 50.1396V49.576H749.68ZM738.736 56.2V57.2H739.015L739.254 57.0555L738.736 56.2ZM723.088 56.2H722.088V57.2H723.088V56.2ZM723.088 46.0239V45.0239H722.088V46.0239H723.088ZM737.584 46.0239V47.0239H738.584V46.0239H737.584ZM737.584 42.8559V41.8559H736.584V42.8559H737.584ZM692.08 20.4879L692.598 21.3434L703.542 14.7194L703.024 13.8639L702.506 13.0084L691.562 19.6325L692.08 20.4879ZM703.024 13.8639V14.8639H718.768V13.8639V12.8639H703.024V13.8639ZM718.768 13.8639H717.768V22.888H718.768H719.768V13.8639H718.768ZM718.768 22.888V21.888H704.272V22.888V23.888H718.768V22.888ZM704.272 22.888H703.272V46.0239H704.272H705.272V22.888H704.272ZM704.272 46.0239V47.0239H718.384V46.0239V45.0239H704.272V46.0239ZM718.384 46.0239H717.384V56.2H718.384H719.384V46.0239H718.384ZM718.384 56.2V55.2H703.024V56.2V57.2H718.384V56.2ZM703.024 56.2L703.542 55.3445L692.598 48.7205L692.08 49.576L691.562 50.4314L702.506 57.0555L703.024 56.2ZM692.08 49.576H693.08V20.4879H692.08H691.08V49.576H692.08ZM749.68 27.208H750.68V20.4879H749.68H748.68V27.208H749.68ZM749.68 20.4879L750.198 19.6325L739.254 13.0084L738.736 13.8639L738.218 14.7194L749.162 21.3434L749.68 20.4879ZM738.736 13.8639V12.8639H723.088V13.8639V14.8639H738.736V13.8639ZM723.088 13.8639H722.088V22.888H723.088H724.088V13.8639H723.088ZM723.088 22.888V23.888H737.584V22.888V21.888H723.088V22.888ZM737.584 22.888H736.584V27.208H737.584H738.584V22.888H737.584ZM737.584 27.208V28.208H749.68V27.208V26.208H737.584V27.208ZM749.68 42.8559H748.68V49.576H749.68H750.68V42.8559H749.68ZM749.68 49.576L749.162 48.7205L738.218 55.3445L738.736 56.2L739.254 57.0555L750.198 50.4314L749.68 49.576ZM738.736 56.2V55.2H723.088V56.2V57.2H738.736V56.2ZM723.088 56.2H724.088V46.0239H723.088H722.088V56.2H723.088ZM723.088 46.0239V47.0239H737.584V46.0239V45.0239H723.088V46.0239ZM737.584 46.0239H738.584V42.8559H737.584H736.584V46.0239H737.584ZM737.584 42.8559V43.8559H749.68V42.8559V41.8559H737.584V42.8559ZM759.062 0.999947V-5.34058e-05H758.062V0.999947H759.062ZM771.158 0.999947H772.158V-5.34058e-05H771.158V0.999947ZM771.158 31.048H770.158V32.048H771.158V31.048ZM776.534 31.048H777.534V30.048H776.534V31.048ZM776.534 38.056V39.056H777.534V38.056H776.534ZM771.158 38.056V37.056H770.158V38.056H771.158ZM771.158 56.296V57.296H772.158V56.296H771.158ZM759.062 56.296H758.062V57.296H759.062V56.296ZM792.278 34.1199L791.728 33.2851L790.448 34.1289L791.736 34.9601L792.278 34.1199ZM814.262 19.624L814.813 20.4588L816.032 19.6549L814.842 18.8089L814.262 19.624ZM806.294 13.9599L806.874 13.1449L806.305 12.7407L805.729 13.1348L806.294 13.9599ZM781.334 31.048L780.769 30.2228L780.334 30.5207V31.048H781.334ZM781.334 38.056H780.334V38.5544L780.732 38.8544L781.334 38.056ZM805.526 56.296L804.924 57.0944L805.467 57.5038L806.048 57.1494L805.526 56.296ZM816.374 49.672L816.896 50.5254L818.255 49.6954L816.917 48.8317L816.374 49.672ZM759.062 0.999947V1.99995H771.158V0.999947V-5.34058e-05H759.062V0.999947ZM771.158 0.999947H770.158V31.048H771.158H772.158V0.999947H771.158ZM771.158 31.048V32.048H776.534V31.048V30.048H771.158V31.048ZM776.534 31.048H775.534V38.056H776.534H777.534V31.048H776.534ZM776.534 38.056V37.056H771.158V38.056V39.056H776.534V38.056ZM771.158 38.056H770.158V56.296H771.158H772.158V38.056H771.158ZM771.158 56.296V55.296H759.062V56.296V57.296H771.158V56.296ZM759.062 56.296H760.062V0.999947H759.062H758.062V56.296H759.062ZM792.278 34.1199L792.829 34.9548L814.813 20.4588L814.262 19.624L813.712 18.7891L791.728 33.2851L792.278 34.1199ZM814.262 19.624L814.842 18.8089L806.874 13.1449L806.294 13.9599L805.715 14.775L813.683 20.439L814.262 19.624ZM806.294 13.9599L805.729 13.1348L780.769 30.2228L781.334 31.048L781.899 31.8731L806.859 14.7851L806.294 13.9599ZM781.334 31.048H780.334V38.056H781.334H782.334V31.048H781.334ZM781.334 38.056L780.732 38.8544L804.924 57.0944L805.526 56.296L806.128 55.4975L781.936 37.2575L781.334 38.056ZM805.526 56.296L806.048 57.1494L816.896 50.5254L816.374 49.672L815.853 48.8185L805.005 55.4425L805.526 56.296ZM816.374 49.672L816.917 48.8317L792.821 33.2798L792.278 34.1199L791.736 34.9601L815.832 50.5121L816.374 49.672ZM883.751 31.528L884.256 32.3912L884.751 32.1016V31.528H883.751ZM883.751 20.584H884.751V20.0145L884.262 19.7239L883.751 20.584ZM872.423 13.8639L872.934 13.0039L872.698 12.8639H872.423V13.8639ZM857.063 13.8639V12.8639H856.063V13.8639H857.063ZM857.063 22.888H856.063V23.888H857.063V22.888ZM871.559 22.888H872.559V21.888H871.559V22.888ZM871.559 30.7599V31.7599H872.559V30.7599H871.559ZM857.063 30.7599V29.7599H856.063V30.7599H857.063ZM857.063 38.152H856.063V39.152H857.063V38.152ZM872.423 38.152V39.152H872.694L872.928 39.0152L872.423 38.152ZM883.751 42.8559H884.751V41.8559H883.751V42.8559ZM871.175 42.8559V41.8559H870.175V42.8559H871.175ZM871.175 46.0239V47.0239H872.175V46.0239H871.175ZM857.063 46.0239V45.0239H856.063V46.0239H857.063ZM857.063 56.2H856.063V57.2H857.063V56.2ZM872.423 56.2V57.2H872.694L872.928 57.0632L872.423 56.2ZM883.751 49.576L884.256 50.4392L884.751 50.1496V49.576H883.751ZM825.767 49.576H824.767V50.1496L825.263 50.4392L825.767 49.576ZM825.767 20.584L825.257 19.7239L824.767 20.0145V20.584H825.767ZM837.095 13.8639V12.8639H836.821L836.585 13.0039L837.095 13.8639ZM852.359 13.8639H853.359V12.8639H852.359V13.8639ZM852.359 22.888V23.888H853.359V22.888H852.359ZM837.863 22.888V21.888H836.863V22.888H837.863ZM837.863 30.7599H836.863V31.7599H837.863V30.7599ZM852.359 30.7599H853.359V29.7599H852.359V30.7599ZM852.359 38.152V39.152H853.359V38.152H852.359ZM837.863 38.152V37.152H836.863V38.152H837.863ZM837.863 46.0239H836.863V47.0239H837.863V46.0239ZM852.359 46.0239H853.359V45.0239H852.359V46.0239ZM852.359 56.2V57.2H853.359V56.2H852.359ZM837.095 56.2L836.591 57.0632L836.824 57.2H837.095V56.2ZM883.751 31.528H884.751V20.584H883.751H882.751V31.528H883.751ZM883.751 20.584L884.262 19.7239L872.934 13.0039L872.423 13.8639L871.913 14.724L883.241 21.444L883.751 20.584ZM872.423 13.8639V12.8639H857.063V13.8639V14.8639H872.423V13.8639ZM857.063 13.8639H856.063V22.888H857.063H858.063V13.8639H857.063ZM857.063 22.888V23.888H871.559V22.888V21.888H857.063V22.888ZM871.559 22.888H870.559V30.7599H871.559H872.559V22.888H871.559ZM871.559 30.7599V29.7599H857.063V30.7599V31.7599H871.559V30.7599ZM857.063 30.7599H856.063V38.152H857.063H858.063V30.7599H857.063ZM857.063 38.152V39.152H872.423V38.152V37.152H857.063V38.152ZM872.423 38.152L872.928 39.0152L884.256 32.3912L883.751 31.528L883.247 30.6647L871.919 37.2887L872.423 38.152ZM883.751 42.8559V41.8559H871.175V42.8559V43.8559H883.751V42.8559ZM871.175 42.8559H870.175V46.0239H871.175H872.175V42.8559H871.175ZM871.175 46.0239V45.0239H857.063V46.0239V47.0239H871.175V46.0239ZM857.063 46.0239H856.063V56.2H857.063H858.063V46.0239H857.063ZM857.063 56.2V57.2H872.423V56.2V55.2H857.063V56.2ZM872.423 56.2L872.928 57.0632L884.256 50.4392L883.751 49.576L883.247 48.7127L871.919 55.3367L872.423 56.2ZM883.751 49.576H884.751V42.8559H883.751H882.751V49.576H883.751ZM825.767 49.576H826.767V20.584H825.767H824.767V49.576H825.767ZM825.767 20.584L826.278 21.444L837.606 14.724L837.095 13.8639L836.585 13.0039L825.257 19.7239L825.767 20.584ZM837.095 13.8639V14.8639H852.359V13.8639V12.8639H837.095V13.8639ZM852.359 13.8639H851.359V22.888H852.359H853.359V13.8639H852.359ZM852.359 22.888V21.888H837.863V22.888V23.888H852.359V22.888ZM837.863 22.888H836.863V30.7599H837.863H838.863V22.888H837.863ZM837.863 30.7599V31.7599H852.359V30.7599V29.7599H837.863V30.7599ZM852.359 30.7599H851.359V38.152H852.359H853.359V30.7599H852.359ZM852.359 38.152V37.152H837.863V38.152V39.152H852.359V38.152ZM837.863 38.152H836.863V46.0239H837.863H838.863V38.152H837.863ZM837.863 46.0239V47.0239H852.359V46.0239V45.0239H837.863V46.0239ZM852.359 46.0239H851.359V56.2H852.359H853.359V46.0239H852.359ZM852.359 56.2V55.2H837.095V56.2V57.2H852.359V56.2ZM837.095 56.2L837.6 55.3367L826.272 48.7127L825.767 49.576L825.263 50.4392L836.591 57.0632L837.095 56.2ZM901 14.248V13.248H900V14.248H901ZM913 14.248H914V13.248H913V14.248ZM913 18.3759H912V19.7029L913.275 19.3372L913 18.3759ZM927.4 14.248H928.4V12.921L927.124 13.2867L927.4 14.248ZM927.4 23.1759V24.1759H928.4V23.1759H927.4ZM913 23.1759V22.1759H912V23.1759H913ZM913 56.2V57.2H914V56.2H913ZM901 56.2H900V57.2H901V56.2ZM944.2 19.5279H945.2V18.8652L944.59 18.607L944.2 19.5279ZM931.72 14.248L932.11 13.327L930.72 12.7391V14.248H931.72ZM931.72 27.3039H930.72V28.3039H931.72V27.3039ZM944.2 27.3039V28.3039H945.2V27.3039H944.2ZM901 14.248V15.248H913V14.248V13.248H901V14.248ZM913 14.248H912V18.3759H913H914V14.248H913ZM913 18.3759L913.275 19.3372L927.675 15.2092L927.4 14.248L927.124 13.2867L912.724 17.4147L913 18.3759ZM927.4 14.248H926.4V23.1759H927.4H928.4V14.248H927.4ZM927.4 23.1759V22.1759H913V23.1759V24.1759H927.4V23.1759ZM913 23.1759H912V56.2H913H914V23.1759H913ZM913 56.2V55.2H901V56.2V57.2H913V56.2ZM901 56.2H902V14.248H901H900V56.2H901ZM944.2 19.5279L944.59 18.607L932.11 13.327L931.72 14.248L931.33 15.1689L943.81 20.4489L944.2 19.5279ZM931.72 14.248H930.72V27.3039H931.72H932.72V14.248H931.72ZM931.72 27.3039V28.3039H944.2V27.3039V26.3039H931.72V27.3039ZM944.2 27.3039H945.2V19.5279H944.2H943.2V27.3039H944.2Z" fill="#9E9B95" mask="url(#path-1-outside-1_288_17)"/>
</svg>
